PathFileType	4	(X/Y/Z)	c:/Users/goper/Files/vsCode/490R/osim_files/C07/C07_Slow_05.trc
DataRate	CameraRate	NumFrames	NumMarkers	Units                	OrigDataRate	OrigDataStartFrame	OrigNumFrames
250.00	250.00	5	36	mm	250.0	1922	3074
                Frame#	Time	LPSIS			LASIS			LTH1			LTH2			LTH3			LTH4			LLFE			LMFE			LSH1			LSH2			LSH3			LSH4			LLMAL			LMMAL			LCAL			LMTP5			LTOE			LMTP1			RPSIS			RASIS			RTH1			RTH2			RTH3			RTH4			RLFE			RMFE			RSH1			RSH2			RSH3			RSH4			RLMAL			RMMAL			RCAL			RMTP1			RTOE			RMTP5		
		X1	Y1	Z1	X2	Y2	Z2	X3	Y3	Z3	X4	Y4	Z4	X5	Y5	Z5	X6	Y6	Z6	X7	Y7	Z7	X8	Y8	Z8	X9	Y9	Z9	X10	Y10	Z10	X11	Y11	Z11	X12	Y12	Z12	X13	Y13	Z13	X14	Y14	Z14	X15	Y15	Z15	X16	Y16	Z16	X17	Y17	Z17	X18	Y18	Z18	X19	Y19	Z19	X20	Y20	Z20	X21	Y21	Z21	X22	Y22	Z22	X23	Y23	Z23	X24	Y24	Z24	X25	Y25	Z25	X26	Y26	Z26	X27	Y27	Z27	X28	Y28	Z28	X29	Y29	Z29	X30	Y30	Z30	X31	Y31	Z31	X32	Y32	Z32	X33	Y33	Z33	X34	Y34	Z34	X35	Y35	Z35	X36	Y36	Z36

1922	7.68400	-2466.81885	982.44159	299.68079	-2611.63086	956.54523	417.80206	0.00000	0.00000	0.00000	0.00000	0.00000	0.00000	-2632.64087	605.61206	434.50046	-2671.30444	708.22955	455.44498	-2676.38208	492.44797	400.65567	-2740.75952	500.82947	296.46350	-2723.33862	305.33157	400.25708	0.00000	0.00000	0.00000	-2757.65894	328.75211	411.33136	-2777.68848	288.60141	405.80862	-2833.52271	104.64780	351.12772	-2880.49927	150.74144	308.28488	-2837.81909	38.17611	281.82553	-2940.97803	73.06471	446.52374	-3004.38916	114.74869	429.11319	-3016.87964	103.37703	374.05954	0.00000	0.00000	0.00000	0.00000	0.00000	0.00000	-2616.31152	826.72479	96.42829	0.00000	0.00000	0.00000	0.00000	0.00000	0.00000	-2665.38330	738.86780	143.00420	-2526.58325	494.69031	129.42313	-2512.45728	502.93411	238.26585	-2416.67627	336.71262	104.92619	-2431.16553	280.97955	106.79350	-2474.65723	320.24387	115.88322	-2460.92163	278.17032	117.97749	-2348.85571	121.47620	147.67772	-2372.59595	121.65417	227.23863	-2287.74609	71.53420	191.77740	-2494.32446	39.13254	223.01913	-2516.67090	48.18915	172.70343	-2470.21729	39.48430	112.05381
1923	7.68800	-2470.43799	982.34088	299.99667	-2614.87939	956.09875	418.56531	0.00000	0.00000	0.00000	0.00000	0.00000	0.00000	-2635.30444	605.07269	434.72717	-2674.13989	707.63348	455.89914	-2678.55811	491.78586	400.80969	-2743.94507	500.54501	297.13443	-2725.37573	304.38599	400.03610	0.00000	0.00000	0.00000	-2759.49902	327.75269	411.43768	-2779.57446	287.56808	405.96060	-2833.84546	102.96973	349.21597	-2884.79077	150.39333	308.44711	-2839.53027	38.10998	280.31470	-2942.39771	64.71687	440.77487	-3005.86841	115.21312	432.82968	-3017.85010	102.46233	375.94339	0.00000	0.00000	0.00000	-2498.45044	997.84918	207.54051	0.00000	0.00000	0.00000	0.00000	0.00000	0.00000	0.00000	0.00000	0.00000	-2669.17578	738.68500	143.71379	-2530.19800	494.52188	129.83154	-2515.87549	502.77167	238.69957	-2417.63159	335.96667	106.17548	-2433.89111	282.59564	107.04069	-2477.07300	320.43671	116.06783	-2463.03076	278.44867	118.16283	-2349.65674	122.43658	147.46138	-2373.32983	122.46613	227.07289	-2288.10376	72.89870	191.45015	-2494.34497	39.12322	222.99292	-2516.68018	48.03447	172.74533	-2470.32104	39.48720	111.98430
1924	7.69200	-2472.55029	979.94440	301.72238	-2617.97168	955.69556	419.33273	-2572.70386	742.84167	437.86783	0.00000	0.00000	0.00000	-2638.68701	605.06219	434.97849	-2676.95068	706.97430	456.40421	-2683.49927	490.80481	402.62341	-2747.09814	500.18402	297.93100	-2727.30737	303.55661	399.75726	0.00000	0.00000	0.00000	-2761.23169	326.67157	411.60614	-2781.35205	286.51492	406.10849	0.00000	0.00000	0.00000	-2885.47070	149.39165	309.47595	-2840.08154	38.89426	279.35492	0.00000	0.00000	0.00000	-3005.00562	112.41792	434.64026	-3020.24487	102.00926	377.78140	0.00000	0.00000	0.00000	-2502.30542	997.66431	207.89043	0.00000	0.00000	0.00000	0.00000	0.00000	0.00000	0.00000	0.00000	0.00000	-2673.07349	738.50458	144.46582	-2533.90308	494.37637	130.29135	-2519.41772	502.55661	239.13284	-2420.13037	336.54825	106.28336	-2436.08862	283.32016	107.30486	-2479.57983	320.59100	116.28018	-2464.70093	278.58588	118.67731	-2350.38184	123.65505	147.27054	-2374.15112	123.39466	226.87033	-2288.47485	74.32620	191.29799	-2494.36084	39.11958	222.98009	-2516.69678	47.91928	172.76468	-2470.48511	39.56258	111.87696
1925	7.69600	-2476.10645	979.71771	302.03601	-2621.35449	955.46143	420.10605	0.00000	0.00000	0.00000	0.00000	0.00000	0.00000	-2640.95483	604.30902	435.29395	-2680.16260	706.53827	456.94543	-2686.00708	490.10233	402.87415	-2750.30640	499.92978	298.60712	-2729.11475	302.54593	399.41669	0.00000	0.00000	0.00000	-2762.97266	325.64133	411.63153	-2783.15112	285.48880	406.23737	-2837.50610	101.44719	348.59769	-2888.35010	148.91783	309.42270	-2844.93286	38.63685	278.58826	-2944.08472	61.60285	442.08719	-3009.22949	111.37355	436.54404	-3021.45288	100.56082	379.37949	0.00000	0.00000	0.00000	0.00000	0.00000	0.00000	0.00000	0.00000	0.00000	0.00000	0.00000	0.00000	0.00000	0.00000	0.00000	-2676.96484	738.34839	145.51843	-2537.73975	494.15958	130.69684	-2523.01001	502.36676	239.53300	-2424.49683	338.61456	105.40093	-2438.36035	283.79721	107.44067	-2481.96387	320.72812	116.48079	-2466.82031	278.86426	118.84212	-2351.19116	124.83863	147.02020	-2374.79736	124.28900	226.60904	-2288.86475	75.92403	190.96008	-2494.39526	39.11345	222.93768	-2516.75708	47.87350	172.76732	-2470.61572	39.56130	111.78096
1926	7.70000	-2480.52051	979.99524	303.14468	-2624.78906	955.22083	420.87134	0.00000	0.00000	0.00000	0.00000	0.00000	0.00000	-2643.94995	604.05902	435.62845	-2683.30420	706.10913	457.48975	-2688.47192	489.43942	403.20462	-2753.39258	499.52927	299.32886	-2730.95020	301.61508	399.14111	0.00000	0.00000	0.00000	-2764.77075	324.64786	411.77448	-2784.87451	284.47144	406.32199	-2840.18896	96.82050	344.53882	-2891.37207	148.50371	310.80478	-2845.65625	38.53390	278.96838	0.00000	0.00000	0.00000	-3009.00610	105.04102	432.44931	-3021.80640	98.36054	380.61365	0.00000	0.00000	0.00000	0.00000	0.00000	0.00000	0.00000	0.00000	0.00000	-2620.66040	745.83423	100.59167	0.00000	0.00000	0.00000	-2680.66309	738.12152	147.09688	-2541.69458	493.99738	131.14893	-2526.85913	502.32410	239.97566	-2425.60254	337.88724	106.60518	-2440.51440	284.18802	107.50925	-2484.55298	320.89465	116.70358	-2469.00024	279.09741	118.95825	-2352.20898	126.19276	146.66077	-2375.72241	125.36005	226.44266	-2289.34009	77.55223	190.71442	-2494.44727	39.16188	222.91605	-2516.81982	47.82060	172.74510	-2470.75024	39.60037	111.67828
